# xmcd
#
# Track frame offsets:
#	150
#	19725
#	39397
#	56308
#	71175
#	90106
#	110076
#	128191
#	147010
#	162055
#	183776
#
# Disc length: 2715 seconds
#
# Revision: 1
# Processed by: cddbd v1.5.1PL2 Copyright (c) Steve Scherf et al.
# Submitted via: audiograbber 1.80
#
DISCID=860a990b
DTITLE=The Cell - Are you ready
DYEAR=1900
DGENRE=
TTITLE0=The blues never stops
TTITLE1=Ready for a ride
TTITLE2=Out of time
TTITLE3=Burnin like a fire
TTITLE4=Dreams inside my head
TTITLE5=I havent got a lady
TTITLE6=Back door woman
TTITLE7=Down
TTITLE8=Third bitch in a row
TTITLE9=Long gone
TTITLE10=Fall into the sky
EXTD=Blues aus cz
EXTT0=
EXTT1=
EXTT2=
EXTT3=
EXTT4=
EXTT5=
EXTT6=
EXTT7=
EXTT8=
EXTT9=
EXTT10=
PLAYORDER=
